<?xml version="1.0" standalone="no"?>
<!DOCTYPE svg PUBLIC "-//W3C//DTD SVG 20010904//EN"
 "http://www.w3.org/TR/2001/REC-SVG-20010904/DTD/svg10.dtd">
<svg version="1.0" xmlns="http://www.w3.org/2000/svg"
 width="300.000000pt" height="300.000000pt" viewBox="0 0 300.000000 300.000000"
 preserveAspectRatio="xMidYMid meet">
<metadata>
Created by potrace 1.11, written by Peter Selinger 2001-2013
</metadata>
<g transform="translate(0.000000,300.000000) scale(0.100000,-0.100000)"
fill="#000000" stroke="none">
<path d="M2631 2303 c0 -170 0 -325 -1 -346 l0 -38 -30 21 c-40 29 -132 69
-209 91 -277 80 -596 3 -793 -193 -17 -17 -16 -20 16 -62 61 -81 103 -165 142
-285 3 -11 10 -6 23 15 10 16 38 47 63 70 251 231 648 136 769 -185 31 -84 34
-207 5 -296 -27 -84 -63 -143 -123 -202 -88 -85 -176 -122 -305 -129 -137 -6
-252 36 -348 128 -47 45 -90 101 -90 117 0 5 -4 11 -8 13 -13 5 -56 115 -77
198 -15 61 -23 103 -31 160 -8 65 -60 216 -95 277 -38 66 -100 146 -153 197
-87 82 -258 174 -356 191 -18 3 -38 9 -44 12 -6 4 -61 8 -123 9 -403 8 -738
-244 -839 -631 -26 -101 -24 -302 5 -409 109 -407 509 -669 931 -610 132 18
282 82 379 162 50 40 91 81 91 88 0 3 -21 49 -46 102 -25 53 -60 138 -77 189
-27 83 -47 117 -47 80 0 -38 -100 -155 -170 -199 -177 -113 -420 -89 -578 56
-99 90 -146 201 -147 341 0 146 46 253 152 352 181 169 480 160 656 -20 53
-54 154 -283 192 -437 37 -150 115 -341 177 -435 72 -110 242 -219 413 -266
97 -26 262 -32 364 -13 331 63 602 332 667 664 4 19 8 371 9 783 l2 747 -183
0 -183 0 0 -307z"/>
</g>
</svg>
